<svg width="424" height="80" viewBox="0 0 424 80" fill="none" xmlns="http://www.w3.org/2000/svg">
<path d="M57.8936 34.8602L44.1624 26.9326L30.4277 34.8602V35.9204L44.1624 43.848L57.8936 35.9204V34.8602Z" fill="#42B0DB"/>
<path d="M57.8936 17.9619V16.9051L44.1624 8.97754L30.4277 16.9051V17.9619L44.1624 25.8895L57.8936 17.9619Z" fill="#42B0DB"/>
<path d="M42.4244 26.9394V25.8827L28.6898 17.9551L14.9551 25.8827V26.9394L28.6898 34.8705L42.4244 26.9394Z" fill="#42B0DB"/>
<path d="M61.377 17.9619L75.1082 25.8895L88.8428 17.9619V16.9051L75.1082 8.97754L61.377 16.9051V17.9619Z" fill="#6EBDDB"/>
<path d="M73.3682 8.98436V7.92758L59.637 0L45.9023 7.92758V8.98436L59.637 16.9119L73.3682 8.98436Z" fill="#6EBDDB"/>
<path d="M90.6726 17.9551L76.9414 25.8827V26.9394L90.6726 34.8705L104.407 26.9394V25.8827L90.6726 17.9551Z" fill="#6EBDDB"/>
<path d="M42.9385 61.8543L29.2039 53.9268L15.4727 61.8543V62.9111L29.2039 70.8387L42.9385 62.9111V61.8543Z" fill="#248BB2"/>
<path d="M27.4659 52.8773L13.7347 44.9463L0 52.8773V53.9341L13.7347 61.8617L27.4659 53.9341V52.8773Z" fill="#248BB2"/>
<path d="M46.5098 61.8543V62.9111L60.2444 70.8387L73.9791 62.9111V61.8543L60.2444 53.9268L46.5098 61.8543Z" fill="#009EDB"/>
<path d="M73.8839 44.9531V43.8963L60.1526 35.9688L46.418 43.8963V44.9531L60.1526 52.8842L73.8839 44.9531Z" fill="#009EDB"/>
<path d="M61.9824 52.8773V53.9341L75.7171 61.8617L89.4518 53.9341V52.8773L75.7171 44.9463L61.9824 52.8773Z" fill="#009EDB"/>
<path d="M30.9453 71.0155V72.0723L44.68 79.9998L58.4147 72.0723V71.0155L44.68 63.0879L30.9453 71.0155Z" fill="#248BB2"/>
<path d="M133.036 31.3638C131.037 31.3638 129.487 31.7613 128.387 32.5492C127.284 33.3407 126.733 34.5262 126.733 36.1056C126.733 37.5632 127.535 38.8417 129.136 39.9448C130.737 41.0479 132.871 42.0972 135.536 43.0964C137.699 43.8879 139.55 44.794 141.09 45.8111C142.63 46.8318 143.909 48.2357 144.93 50.0229C145.95 51.8136 146.459 54.0806 146.459 56.8275C146.459 59.1984 145.843 61.3938 144.618 63.4137C143.39 65.4336 141.592 67.0345 139.217 68.2199C136.846 69.4054 134.014 69.9999 130.729 69.9999C127.983 69.9999 125.257 69.5952 122.553 68.7822C119.849 67.9692 117.331 66.7336 115 65.0683L118.997 58.0129C120.576 59.1769 122.388 60.1367 124.426 60.8852C126.464 61.6337 128.298 62.0098 129.92 62.0098C131.833 62.0098 133.498 61.6051 134.913 60.7921C136.327 59.9791 137.036 58.6612 137.036 56.8275C137.036 54.4566 134.809 52.3937 130.357 50.646C127.735 49.6074 125.551 48.6082 123.803 47.6484C122.055 46.6922 120.548 45.3169 119.276 43.5298C118.005 41.7427 117.371 39.4936 117.371 36.7896C117.371 32.8358 118.671 29.6519 121.271 27.238C123.871 24.8242 127.334 23.5134 131.664 23.3057C135.077 23.3057 137.928 23.6925 140.217 24.4589C142.505 25.2289 144.733 26.3212 146.896 27.7358L143.461 34.6658C139.468 32.4597 135.991 31.3566 133.036 31.3566V31.3638Z" fill="#4C566C"/>
<path d="M192.115 43.5906C193.716 45.0876 194.558 47.0645 194.644 49.5214V69.9962H185.966V53.1422C185.884 51.7705 185.654 50.739 185.278 50.0514C184.902 49.3638 184.175 48.9806 183.094 48.8982C181.056 48.8982 179.462 49.8867 178.32 51.8636C177.174 53.8405 176.604 56.1613 176.604 58.8222V69.9962H167.866V53.1422C167.783 51.7705 167.533 50.739 167.117 50.0514C166.702 49.3638 165.932 48.9806 164.807 48.8982C162.852 48.8982 161.312 49.8867 160.187 51.8636C159.063 53.8405 158.5 56.1183 158.5 58.7005V69.9998H149.762V42.7203H157.687L158.311 47.0287C160.517 43.2432 163.804 41.3486 168.174 41.3486C170.38 41.3486 172.199 41.7963 173.635 42.6917C175.071 43.587 176.06 44.9085 176.601 46.6563C177.765 45.0339 179.151 43.7446 180.752 42.7848C182.352 41.8285 184.007 41.3486 185.715 41.3486C188.376 41.3486 190.511 42.0971 192.115 43.5942V43.5906Z" fill="#4C566C"/>
<path d="M223.982 61.0105H208.751L205.005 69.9998H196.076L215.727 23.6816H218.016L238.021 69.9998H227.535L223.975 61.0105H223.982ZM220.985 53.3965L216.555 42.2225L211.935 53.3965H220.985Z" fill="#4C566C"/>
<path d="M251.096 45.0303C252.407 43.8664 253.75 42.9603 255.122 42.3156C256.493 41.671 257.579 41.3486 258.366 41.3486L257.93 50.0872C257.679 50.0478 257.324 50.0264 256.869 50.0264C255.122 50.0264 253.582 50.4848 252.249 51.398C250.917 52.3149 249.896 53.4896 249.191 54.9257C248.482 56.3618 248.131 57.8266 248.131 59.3272V69.9998H239.453V42.7203H247.318L248.005 48.9627C248.754 47.5051 249.785 46.1943 251.096 45.0303Z" fill="#4C566C"/>
<path d="M274.215 30.7334V42.595H280.83V49.3996H274.215V69.9998H265.476V49.3996H261.232V42.595H265.476V30.7334H274.215Z" fill="#4C566C"/>
<path d="M314.566 69.9997L304.89 55.3948H298.833V69.9997H289.783V24.0576H303.704C309.406 24.0576 313.825 25.44 316.97 28.2085C320.11 30.9769 321.683 34.7517 321.683 39.5364C321.683 42.3657 321.088 45.0195 319.903 47.4943C318.717 49.969 316.894 51.9173 314.441 53.3319L325.114 69.9997H314.566ZM298.837 46.6562H305.266C307.719 46.6562 309.51 45.9399 310.634 44.5038C311.759 43.0676 312.321 41.5169 312.321 39.8551C312.321 38.1934 311.841 36.5997 310.885 35.0811C309.929 33.5626 308.077 32.8034 305.33 32.8034H298.837V46.6598V46.6562Z" fill="#4C566C"/>
<path d="M326.002 47.7774C327.312 45.5712 329.164 43.8342 331.556 42.5664C333.949 41.2986 336.663 40.6611 339.704 40.6611C342.745 40.6611 345.416 41.295 347.726 42.5664C350.036 43.8378 351.816 45.5748 353.063 47.7774C354.313 49.9835 354.936 52.4797 354.936 55.2661C354.936 58.0524 354.313 60.5701 353.063 62.8192C351.816 65.0647 350.036 66.8268 347.726 68.0946C345.416 69.3624 342.702 69.9999 339.582 69.9999C336.463 69.9999 333.848 69.4054 331.499 68.22C329.15 67.0345 327.316 65.3405 326.005 63.1344C324.694 60.9282 324.039 58.3067 324.039 55.2696C324.039 52.4833 324.694 49.9835 326.005 47.7809L326.002 47.7774ZM334.708 60.7313C335.958 62.1674 337.537 62.8837 339.453 62.8837C341.369 62.8837 343.063 62.1781 344.292 60.7599C345.52 59.3453 346.133 57.5367 346.133 55.3305C346.133 53.1244 345.517 51.3158 344.292 49.9011C343.063 48.4865 341.452 47.7774 339.453 47.7774C337.455 47.7774 335.958 48.4936 334.708 49.9298C333.458 51.3659 332.835 53.1674 332.835 55.3305C332.835 57.4937 333.458 59.2951 334.708 60.7313Z" fill="#4C566C"/>
<path d="M388.9 41.9719V69.2514H380.162V65.8813C377.54 68.6282 374.503 69.9999 371.047 69.9999C367.011 69.9999 363.734 68.793 361.216 66.3791C358.698 63.9653 357.441 60.3875 357.441 55.6421C357.441 52.6445 358.054 50.0157 359.282 47.7451C360.511 45.4781 362.144 43.7197 364.182 42.4697C366.219 41.2198 368.404 40.5967 370.736 40.5967C373.067 40.5967 375.062 40.962 376.477 41.689C377.891 42.416 379.137 43.4475 380.223 44.7797L380.785 41.9719H388.9ZM380.162 58.7615V52.0822C379.664 50.7499 378.797 49.6898 377.572 48.8984C376.344 48.1069 374.897 47.7129 373.235 47.7129C371.319 47.7129 369.686 48.422 368.336 49.8367C366.982 51.2513 366.305 53.042 366.305 55.2052C366.305 56.6198 366.638 57.9199 367.305 59.1053C367.971 60.2908 368.855 61.2183 369.958 61.8845C371.061 62.5506 372.258 62.8837 373.547 62.8837C376.584 62.8837 378.79 61.512 380.162 58.7651V58.7615Z" fill="#4C566C"/>
<path d="M423.494 20V69.2513H414.755V66.379C411.593 68.7929 408.223 69.9998 404.641 69.9998C402.102 69.9998 399.835 69.3946 397.837 68.1912C395.838 66.9843 394.266 65.2581 393.124 63.0089C391.978 60.7634 391.408 58.1203 391.408 55.0833C391.408 52.0463 392.021 49.4964 393.249 47.3117C394.477 45.1271 396.171 43.4617 398.335 42.3192C400.498 41.1768 402.973 40.6038 405.762 40.6038C407.55 40.6038 409.236 40.8831 410.819 41.4454C412.399 42.0077 413.731 42.8278 414.813 43.9094V20.0036H423.49L423.494 20ZM411.883 61.605C413.047 60.9174 414.007 59.8896 414.755 58.5143V51.835C414.257 50.5027 413.362 49.4426 412.073 48.6511C410.784 47.8597 409.265 47.4657 407.517 47.4657C405.562 47.4657 403.864 48.1748 402.432 49.5895C400.996 51.0041 400.279 52.7948 400.279 54.958C400.279 56.3726 400.612 57.6727 401.278 58.8581C401.945 60.0436 402.829 60.9711 403.932 61.6373C405.035 62.3034 406.232 62.6365 407.521 62.6365C409.269 62.6365 410.726 62.2927 411.89 61.605H411.883Z" fill="#4C566C"/>
</svg>
